<svg width="38" height="38" viewBox="0 0 38 38" fill="none" xmlns="http://www.w3.org/2000/svg">
<path fill-rule="evenodd" clip-rule="evenodd" d="M9.19889 25.531C15.0243 24.6998 19.0352 24.7713 24.8683 25.5601C25.2907 25.6199 25.6767 25.827 25.955 26.1431C26.2333 26.4593 26.385 26.8631 26.3823 27.28C26.3823 27.679 26.2419 28.0663 25.9882 28.3689C25.5462 28.8964 25.0934 29.4153 24.63 29.925H26.8776C27.0189 29.7604 27.161 29.5925 27.3048 29.4221C27.8096 28.8175 28.085 28.061 28.0844 27.2808C28.0844 25.5975 26.8265 24.147 25.1015 23.9142C19.1305 23.1071 14.957 23.0298 8.95294 23.8868C7.21001 24.1354 5.95728 25.6083 5.95728 27.3032C5.95728 28.0555 6.20833 28.7995 6.68407 29.4022C6.82449 29.58 6.96321 29.7546 7.10108 29.9258H9.29421C8.86309 29.4217 8.44259 28.909 8.03297 28.388C7.78954 28.0762 7.65822 27.6946 7.65936 27.3024C7.65936 26.4072 8.31807 25.6565 9.19889 25.531ZM17.0208 17.4563C17.6914 17.4563 18.3554 17.3273 18.9749 17.0766C19.5944 16.826 20.1573 16.4586 20.6315 15.9955C21.1056 15.5323 21.4818 14.9825 21.7384 14.3774C21.995 13.7723 22.1271 13.1237 22.1271 12.4688C22.1271 11.8138 21.995 11.1652 21.7384 10.5601C21.4818 9.95501 21.1056 9.40519 20.6315 8.94206C20.1573 8.47893 19.5944 8.11155 18.9749 7.86091C18.3554 7.61026 17.6914 7.48126 17.0208 7.48126C15.6666 7.48126 14.3678 8.00672 13.4102 8.94206C12.4525 9.8774 11.9146 11.146 11.9146 12.4688C11.9146 13.7915 12.4525 15.0601 13.4102 15.9955C14.3678 16.9308 15.6666 17.4563 17.0208 17.4563ZM17.0208 19.1188C18.8265 19.1188 20.5582 18.4181 21.835 17.171C23.1118 15.9239 23.8292 14.2324 23.8292 12.4688C23.8292 10.7051 23.1118 9.01361 21.835 7.7665C20.5582 6.51938 18.8265 5.81876 17.0208 5.81876C15.2151 5.81876 13.4834 6.51938 12.2066 7.7665C10.9298 9.01361 10.2125 10.7051 10.2125 12.4688C10.2125 14.2324 10.9298 15.9239 12.2066 17.171C13.4834 18.4181 15.2151 19.1188 17.0208 19.1188Z" fill="black"/>
<path fill-rule="evenodd" clip-rule="evenodd" d="M17.0208 31.5875C25.481 31.5875 32.3396 24.8885 32.3396 16.625C32.3396 8.36154 25.481 1.6625 17.0208 1.6625C8.56063 1.6625 1.70208 8.36154 1.70208 16.625C1.70208 24.8885 8.56063 31.5875 17.0208 31.5875ZM17.0208 33.25C26.4214 33.25 34.0417 25.807 34.0417 16.625C34.0417 7.44301 26.4214 0 17.0208 0C7.62023 0 0 7.44301 0 16.625C0 25.807 7.62023 33.25 17.0208 33.25Z" fill="black"/>
</svg>
