<svg width="18" height="20" viewBox="0 0 18 20" fill="none" xmlns="http://www.w3.org/2000/svg">
<path d="M14.625 1.25H7.875C7.57672 1.25033 7.29075 1.38213 7.07983 1.61648C6.86892 1.85083 6.7503 2.16858 6.75 2.5V4.375H7.875V2.5H14.625L14.625 17.5H7.875V15.625H6.75V17.5C6.7503 17.8314 6.86892 18.1492 7.07983 18.3835C7.29075 18.6179 7.57672 18.7497 7.875 18.75H14.625C14.9233 18.7497 15.2093 18.6179 15.4202 18.3835C15.6311 18.1492 15.7497 17.8314 15.75 17.5L15.75 2.5C15.7497 2.16858 15.6311 1.85083 15.4202 1.61648C15.2093 1.38213 14.9233 1.25033 14.625 1.25Z" fill="black"/>
<path d="M6.42037 7.13375L4.40325 9.375H12.375V10.625H4.40325L6.42037 12.8663L5.625 13.75L2.25 10L5.625 6.25L6.42037 7.13375Z" fill="black"/>
</svg>
