<svg width="26" height="26" viewBox="0 0 26 26" fill="none" xmlns="http://www.w3.org/2000/svg">
<path fill-rule="evenodd" clip-rule="evenodd" d="M20.2222 7.22222C20.2222 11.2111 16.9888 14.4444 13 14.4444C9.01117 14.4444 5.77778 11.2111 5.77778 7.22222C5.77778 3.23339 9.01117 0 13 0C16.9888 0 20.2222 3.23339 20.2222 7.22222ZM18.7778 7.22222C18.7778 8.75458 18.1691 10.2242 17.0855 11.3077C16.002 12.3913 14.5324 13 13 13C11.4676 13 9.99804 12.3913 8.91449 11.3077C7.83095 10.2242 7.22222 8.75458 7.22222 7.22222C7.22222 5.68986 7.83095 4.22026 8.91449 3.13672C9.99804 2.05317 11.4676 1.44444 13 1.44444C14.5324 1.44444 16.002 2.05317 17.0855 3.13672C18.1691 4.22026 18.7778 5.68986 18.7778 7.22222ZM8.60456 16.5064L8.6125 16.5223L8.66667 16.6284H17.1521C17.3174 16.315 17.6923 15.8152 18.0556 15.8983C18.8717 16.0839 19.6936 16.3424 20.4829 16.6609L20.5068 16.6494L20.5147 16.6653L20.5205 16.6761C23.4924 17.8837 26 19.9304 26 22.0783V26H0V22.0783C0 19.3519 4.04156 16.7866 7.94444 15.8983C8.26294 15.8261 8.45217 16.2016 8.60456 16.5064ZM19.2862 17.7544C18.9764 17.6459 18.663 17.5479 18.3466 17.4604L18.0245 18.0729H7.79494L7.49594 17.5045L7.23594 17.5825C7.23089 17.6302 7.22656 17.6836 7.22439 17.7443C7.215 17.9934 7.23378 18.2888 7.27494 18.5893C7.3172 18.9026 7.38483 19.212 7.47717 19.5144C7.9845 19.5746 8.45428 19.812 8.80354 20.1849C9.1528 20.5577 9.35907 21.042 9.38592 21.5522C9.41278 22.0624 9.25849 22.5656 8.9503 22.9731C8.64212 23.3805 8.19986 23.666 7.70164 23.779C7.20341 23.8921 6.68127 23.8254 6.22742 23.5908C5.77357 23.3563 5.41721 22.9689 5.22127 22.497C5.02533 22.0252 5.00242 21.4993 5.15658 21.0123C5.31074 20.5252 5.63205 20.1083 6.06378 19.8351L6.058 19.8149C5.96176 19.4772 5.89007 19.133 5.8435 18.785C5.81286 18.5627 5.79262 18.339 5.78283 18.1148C4.89017 18.4961 4.05744 18.9569 3.35978 19.4653C1.97167 20.4793 1.44444 21.4269 1.44444 22.0783V24.5556H24.5556V22.0783C24.5556 21.4262 24.0283 20.4786 22.6402 19.4661C22.035 19.0308 21.3903 18.6532 20.7148 18.3379C20.6854 18.7294 20.6255 19.1179 20.5357 19.5H20.9444C21.0785 19.5001 21.21 19.5375 21.324 19.608C21.438 19.6785 21.5302 19.7794 21.5901 19.8994L22.3123 21.3438C22.3629 21.4442 22.3889 21.5547 22.3889 21.6667V23.1111C22.3889 23.3027 22.3128 23.4864 22.1774 23.6218C22.0419 23.7572 21.8582 23.8333 21.6667 23.8333H20.2222V22.3889H20.9444V21.8371L20.4981 20.9444H18.5019L18.0556 21.8371V22.3889H18.7778V23.8333H17.3333C17.1418 23.8333 16.9581 23.7572 16.8226 23.6218C16.6872 23.4864 16.6111 23.3027 16.6111 23.1111V21.6667C16.6111 21.5547 16.6371 21.4442 16.6877 21.3438L17.4099 19.8994C17.4698 19.7794 17.562 19.6785 17.676 19.608C17.79 19.5375 17.9215 19.5001 18.0556 19.5H19.0392C19.0479 19.4711 19.0573 19.4422 19.0659 19.4104C19.1338 19.1786 19.1945 18.8904 19.2357 18.59C19.2761 18.2924 19.2949 18.0014 19.2862 17.7544ZM7.94444 21.6667C7.94444 22.0812 7.61078 22.3997 7.22222 22.3997C6.83367 22.3997 6.5 22.0819 6.5 21.6667C6.5 21.2521 6.83367 20.9336 7.22222 20.9336C7.61078 20.9336 7.94444 21.2514 7.94444 21.6667Z" fill="#07C3CE"/>
</svg>
