<svg width="37" height="42" viewBox="0 0 37 42" fill="none" xmlns="http://www.w3.org/2000/svg">
<path d="M18.5 4.28572C15.5063 4.28572 12.5799 5.16546 10.0907 6.81368C7.60154 8.4619 5.66148 10.8046 4.51584 13.5455C3.37021 16.2864 3.07046 19.3024 3.6545 22.2121C4.23854 25.1218 5.68013 27.7945 7.79699 29.8923C9.91385 31.9901 12.6109 33.4187 15.5471 33.9975C18.4832 34.5763 21.5266 34.2792 24.2924 33.1439C27.0583 32.0086 29.4222 30.086 31.0854 27.6193C32.7486 25.1525 33.6364 22.2524 33.6364 19.2857C33.6287 15.3098 32.0315 11.4989 29.1945 8.68754C26.3576 5.87615 22.5121 4.29334 18.5 4.28572ZM23.9869 23.079C24.2056 23.2978 24.3282 23.5932 24.3282 23.9011C24.3282 24.209 24.2056 24.5045 23.9869 24.7232C23.7644 24.9365 23.4669 25.0557 23.1574 25.0557C22.8478 25.0557 22.5503 24.9365 22.3278 24.7232L18.5 20.9155L14.6723 24.7232C14.4497 24.9365 14.1522 25.0557 13.8427 25.0557C13.5331 25.0557 13.2356 24.9365 13.0131 24.7232C12.7944 24.5045 12.6718 24.209 12.6718 23.9011C12.6718 23.5932 12.7944 23.2978 13.0131 23.079L16.8554 19.2857L13.0131 15.4924C12.8274 15.2683 12.7325 14.9837 12.7469 14.694C12.7612 14.4043 12.8838 14.1303 13.0908 13.9252C13.2977 13.7201 13.5742 13.5986 13.8665 13.5844C14.1588 13.5702 14.446 13.6642 14.6723 13.8482L18.5 17.6559L22.3278 13.8482C22.554 13.6642 22.8412 13.5702 23.1335 13.5844C23.4258 13.5986 23.7023 13.7201 23.9093 13.9252C24.1162 14.1303 24.2388 14.4043 24.2531 14.694C24.2675 14.9837 24.1726 15.2683 23.9869 15.4924L20.1446 19.2857L23.9869 23.079Z" fill="black" fill-opacity="0.33"/>
</svg>
