<svg width="18" height="27" viewBox="0 0 18 27" fill="none" xmlns="http://www.w3.org/2000/svg">
<path d="M3.95508 3.17843L17.3264 12.9098C17.4851 13.0257 17.5963 13.1497 17.6599 13.282C17.7246 13.4144 17.7552 13.5552 17.7517 13.7047C17.7482 13.8541 17.7111 13.9934 17.6402 14.1225C17.5705 14.2517 17.4537 14.3705 17.2897 14.4787L3.4775 23.6025C3.09496 23.8552 2.62138 23.9749 2.05675 23.9617C1.49212 23.9485 1.01143 23.7971 0.614672 23.5075C0.217915 23.2179 0.0239058 22.8864 0.0326406 22.5128C0.0413755 22.1393 0.250671 21.8171 0.66053 21.5464L12.7104 13.5868L1.04574 5.07264C0.675433 4.80235 0.494751 4.47594 0.503696 4.09342C0.512658 3.71016 0.722069 3.38316 1.13193 3.11242C1.54178 2.84169 2.01559 2.71261 2.55333 2.72518C3.09107 2.73775 3.55832 2.88884 3.95508 3.17843Z" fill="black"/>
</svg>
