<svg width="25" height="28" viewBox="0 0 25 28" fill="none" xmlns="http://www.w3.org/2000/svg">
<path d="M6.36686 3.75538H3.69515C2.98657 3.75538 2.30701 4.04321 1.80597 4.55554C1.30493 5.06787 1.02345 5.76274 1.02345 6.48728V22.8787C1.02345 23.6032 1.30493 24.2981 1.80597 24.8104C2.30701 25.3228 2.98657 25.6106 3.69515 25.6106H11.3055M19.7254 13.317V6.48728C19.7254 5.76274 19.4439 5.06787 18.9429 4.55554C18.4418 4.04321 17.7623 3.75538 17.0537 3.75538H14.382" stroke="#07C3CE" stroke-width="2" stroke-linecap="round" stroke-linejoin="round"/>
<path d="M11.7103 1.02345H9.03858C7.56304 1.02345 6.36688 2.24657 6.36688 3.75536C6.36688 5.26415 7.56304 6.48727 9.03858 6.48727H11.7103C13.1858 6.48727 14.382 5.26415 14.382 3.75536C14.382 2.24657 13.1858 1.02345 11.7103 1.02345Z" stroke="#07C3CE" stroke-width="2" stroke-linecap="round" stroke-linejoin="round"/>
<path d="M6.36688 11.9511H11.7103M6.36688 17.4149H10.3744" stroke="#07C3CE" stroke-width="2" stroke-linecap="round" stroke-linejoin="round"/>
<path d="M17.7216 24.2446C19.566 24.2446 21.0612 22.7157 21.0612 20.8297C21.0612 18.9438 19.566 17.4149 17.7216 17.4149C15.8771 17.4149 14.3819 18.9438 14.3819 20.8297C14.3819 22.7157 15.8771 24.2446 17.7216 24.2446Z" stroke="#07C3CE" stroke-width="2" stroke-linecap="round" stroke-linejoin="round"/>
<path d="M20.3933 23.5617L23.733 26.9766" stroke="#07C3CE" stroke-width="2" stroke-linecap="round" stroke-linejoin="round"/>
</svg>
