<svg width="37" height="37" viewBox="0 0 37 37" fill="none" xmlns="http://www.w3.org/2000/svg">
<path fill-rule="evenodd" clip-rule="evenodd" d="M18.5 33.9167C27.0147 33.9167 33.9167 27.0146 33.9167 18.5C33.9167 9.98537 27.0147 3.08333 18.5 3.08333C9.98542 3.08333 3.08337 9.98537 3.08337 18.5C3.08337 27.0146 9.98542 33.9167 18.5 33.9167ZM26.7803 13.6206C26.8525 13.5463 26.9089 13.4583 26.9462 13.3617C26.9835 13.2651 27.001 13.162 26.9977 13.0585C26.9943 12.955 26.9701 12.8532 26.9265 12.7593C26.8829 12.6654 26.8209 12.5812 26.744 12.5118C26.6672 12.4424 26.5772 12.3891 26.4793 12.3553C26.3815 12.3214 26.2778 12.3076 26.1745 12.3147C26.0712 12.3218 25.9704 12.3496 25.878 12.3965C25.7857 12.4434 25.7038 12.5084 25.6372 12.5877L16.4034 22.7912L11.3236 17.9419C11.1758 17.8006 10.9779 17.7239 10.7735 17.7285C10.5691 17.7331 10.3749 17.8188 10.2336 17.9666C10.0924 18.1144 10.0156 18.3123 10.0202 18.5167C10.0248 18.7211 10.1105 18.9153 10.2583 19.0565L15.9116 24.4524L16.4843 24.9997L17.0154 24.4123L26.7796 13.6206H26.7803Z" fill="#14A1FF"/>
</svg>
