<svg width="22" height="28" viewBox="0 0 22 28" fill="none" xmlns="http://www.w3.org/2000/svg">
<path d="M6.60087 3.89381H3.80358C3.0617 3.89381 2.3502 4.19803 1.82561 4.73953C1.30102 5.28104 1.0063 6.01549 1.0063 6.78129V24.1062C1.0063 24.872 1.30102 25.6065 1.82561 26.148C2.3502 26.6895 3.0617 26.9937 3.80358 26.9937H17.79C18.5319 26.9937 19.2434 26.6895 19.768 26.148C20.2926 25.6065 20.5873 24.872 20.5873 24.1062V6.78129C20.5873 6.01549 20.2926 5.28104 19.768 4.73953C19.2434 4.19803 18.5319 3.89381 17.79 3.89381H14.9927" stroke="#07C3CE" stroke-width="2" stroke-linecap="round" stroke-linejoin="round"/>
<path d="M12.1955 1.0063H9.3982C7.85331 1.0063 6.60092 2.29908 6.60092 3.89379C6.60092 5.4885 7.85331 6.78127 9.3982 6.78127H12.1955C13.7404 6.78127 14.9928 5.4885 14.9928 3.89379C14.9928 2.29908 13.7404 1.0063 12.1955 1.0063Z" stroke="#07C3CE" stroke-width="2" stroke-linecap="round" stroke-linejoin="round"/>
<path d="M6.60092 16.8875H6.61491M6.60092 21.2187H6.61491M10.7968 19.775L12.1955 21.2187L16.3914 16.8875" stroke="#07C3CE" stroke-width="2" stroke-linecap="round" stroke-linejoin="round"/>
</svg>
